<svg xmlns="http://www.w3.org/2000/svg" xmlns:xlink="http://www.w3.org/1999/xlink" width="200" height="127" viewBox="0 0 200 127">
  <defs>
    <style>
      .cls-1, .cls-6 {
        fill: #fff;
      }

      .cls-2 {
        fill: #d2d2d2;
      }

      .cls-3 {
        fill: #eb001a;
      }

      .cls-4 {
        fill: #f89e1b;
      }

      .cls-5 {
        fill: #fd5d01;
        opacity: 0.77;
      }

      .cls-6 {
        font-size: 15px;
        font-family: Arial-BoldItalicMT, Arial;
        font-weight: 700;
        font-style: italic;
      }

      .cls-7 {
        font-family: ArialMT, Arial;
        font-weight: 400;
        font-style: normal;
      }

      .cls-8 {
        filter: url(#Rectángulo_138);
      }

      .cls-9 {
        filter: url(#Trazado_124-2);
      }

      .cls-10 {
        filter: url(#Trazado_124);
      }
    </style>
    <filter id="Trazado_124" x="0" y="0" width="180" height="127" filterUnits="userSpaceOnUse">
      <feOffset dy="3" input="SourceAlpha"/>
      <feGaussianBlur stdDeviation="3" result="blur"/>
      <feFlood flood-opacity="0.161"/>
      <feComposite operator="in" in2="blur"/>
    </filter>
    <filter id="Trazado_124-2" x="0" y="0" width="180" height="127" filterUnits="userSpaceOnUse">
      <feOffset dy="3" input="SourceAlpha"/>
      <feGaussianBlur stdDeviation="3" result="blur-2"/>
      <feFlood flood-opacity="0" result="color"/>
      <feComposite operator="out" in="SourceGraphic" in2="blur-2"/>
      <feComposite operator="in" in="color"/>
      <feComposite operator="in" in2="SourceGraphic"/>
    </filter>
    <filter id="Rectángulo_138" x="12" y="9" width="155" height="103" filterUnits="userSpaceOnUse">
      <feOffset dy="3" input="SourceAlpha"/>
      <feGaussianBlur stdDeviation="3" result="blur-3"/>
      <feFlood flood-opacity="0.161" result="color-2"/>
      <feComposite operator="out" in="SourceGraphic" in2="blur-3"/>
      <feComposite operator="in" in="color-2"/>
      <feComposite operator="in" in2="SourceGraphic"/>
    </filter>
  </defs>
  <g id="Componente_69_5" data-name="Componente 69 – 5" transform="translate(9 6)">
    <g data-type="innerShadowGroup">
      <g class="cls-10" transform="matrix(1, 0, 0, 1, -9, -6)">
        <path id="Trazado_124-3" data-name="Trazado 124" class="cls-1" d="M8,0H154a8,8,0,0,1,8,8v93a8,8,0,0,1-8,8H8a8,8,0,0,1-8-8V8A8,8,0,0,1,8,0Z" transform="translate(9 6)"/>
      </g>
      <g class="cls-9" transform="matrix(1, 0, 0, 1, -9, -6)">
        <path id="Trazado_124-4" data-name="Trazado 124" class="cls-1" d="M8,0H154a8,8,0,0,1,8,8v93a8,8,0,0,1-8,8H8a8,8,0,0,1-8-8V8A8,8,0,0,1,8,0Z" transform="translate(9 6)"/>
      </g>
    </g>
    <g data-type="innerShadowGroup">
      <rect id="Rectángulo_138-2" data-name="Rectángulo 138" class="cls-2" width="155" height="103" rx="8" transform="translate(3 3)"/>
      <g class="cls-8" transform="matrix(1, 0, 0, 1, -9, -6)">
        <rect id="Rectángulo_138-3" data-name="Rectángulo 138" class="cls-1" width="155" height="103" rx="8" transform="translate(12 9)"/>
      </g>
    </g>
    <circle id="Elipse_14" data-name="Elipse 14" class="cls-3" cx="14" cy="14" r="14" transform="translate(9 17)"/>
    <ellipse id="Elipse_15" data-name="Elipse 15" class="cls-4" cx="14.5" cy="14" rx="14.5" ry="14" transform="translate(23 17)"/>
    <path id="Trazado_122" data-name="Trazado 122" class="cls-5" d="M31.163,6.1A13.941,13.941,0,0,1,36.087,10.9a20.315,20.315,0,0,1,1.982,7.473,17.79,17.79,0,0,1-1.94,6.891,15.9,15.9,0,0,1-4.922,4.852s-6.757-4.317-6.757-12S31.163,6.1,31.163,6.1Z" transform="translate(-1.568 12.395)"/>
    <text id="_5544" data-name="** 5544" class="cls-6" transform="translate(14 76)"><tspan x="0" y="14">**</tspan><tspan class="cls-7" y="14" xml:space="preserve"> 5544</tspan></text>
  </g>
</svg>
