<svg xmlns="http://www.w3.org/2000/svg" width="33.85" height="58.313" viewBox="0 0 33.85 58.313">
  <defs>
    <style>
      .cls-1, .cls-2, .cls-3, .cls-4 {
        fill: none;
        stroke: #000;
      }

      .cls-2 {
        stroke-width: 2.5px;
      }

      .cls-3 {
        stroke-width: 2px;
      }

      .cls-4 {
        stroke-linecap: round;
        stroke-linejoin: round;
      }
    </style>
  </defs>
  <g id="Componente_13_6" data-name="Componente 13 – 6" transform="translate(1.25 0.5)">
    <path id="Icon_weather-train" data-name="Icon weather-train" class="cls-1" d="M55.492,6.49a1.613,1.613,0,0,0,.559,1.238,1.506,1.506,0,0,0,.309.809,1.124,1.124,0,0,0,.667.524,1.276,1.276,0,0,0,.369.678l.628.339h0a.618.618,0,0,0-.117.482.732.732,0,0,0,.75.75.737.737,0,0,0,.547-.226.711.711,0,0,0,.226-.536.41.41,0,0,0-.012-.107.493.493,0,0,1-.012-.119h.036a.882.882,0,0,0,.643-.274.909.909,0,0,0,.274-.655,1.07,1.07,0,0,0-.143-.452,1.143,1.143,0,0,0,.488-.559h.536a1.73,1.73,0,0,0,1.19-.536,1.626,1.626,0,0,0,.5-1.2,1.61,1.61,0,0,0-.393-1.071,1.925,1.925,0,0,0-.988-.619,1.955,1.955,0,0,0-.738-1.178,2.113,2.113,0,0,0-1.333-.464,1.993,1.993,0,0,0-1.285.452,2.14,2.14,0,0,0-.738,1.154h-.131a1.94,1.94,0,0,0-1.285.464A1.379,1.379,0,0,0,55.492,6.49Z" transform="translate(-35.427 -3.312)"/>
    <path id="Icon_ionic-md-train" data-name="Icon ionic-md-train" class="cls-2" d="M21.3,3.375c-7.837,0-15.675.971-15.675,7.8V29.7a6.842,6.842,0,0,0,6.858,6.822l17.634.009a6.847,6.847,0,0,0,6.858-6.822V11.186C36.975,4.346,29.957,3.375,21.3,3.375ZM12.483,32.623A2.921,2.921,0,1,1,15.422,29.7,2.927,2.927,0,0,1,12.483,32.623ZM33.056,18.979H9.544v-7.8H33.056v7.8Zm-23.512.3V11.186l23.512-.009v7.8ZM30.117,32.623A2.921,2.921,0,1,1,33.056,29.7,2.927,2.927,0,0,1,30.117,32.623Z" transform="translate(-5.625 12.644)"/>
    <path id="Trazado_31" data-name="Trazado 31" class="cls-3" d="M36.507,33.693,31.414,28.8a1.426,1.426,0,0,0-1.976,2.057l.621.6H14.894l.621-.6A1.426,1.426,0,0,0,13.54,28.8L8.447,33.693a1.42,1.42,0,0,0-.041,2.017,1.4,1.4,0,0,0,1.029.438,1.42,1.42,0,0,0,.988-.4l1.5-1.436h21.1l1.5,1.436a1.42,1.42,0,0,0,.988.4,1.4,1.4,0,0,0,1.029-.438A1.411,1.411,0,0,0,36.507,33.693Z" transform="translate(-6.489 20.665)"/>
    <line id="Línea_4" data-name="Línea 4" class="cls-1" y1="5.128" transform="translate(21.115 11.739)"/>
    <line id="Línea_5" data-name="Línea 5" class="cls-1" y1="5.769" transform="translate(23.679 11.739)"/>
    <path id="Trazado_32" data-name="Trazado 32" class="cls-4" d="M4016.137,3013.941h0v-2.784h7.651v2.784h-7.651Z" transform="translate(-3997.178 -3002.202)"/>
  </g>
</svg>
