<svg xmlns="http://www.w3.org/2000/svg" width="68.262" height="44.495" viewBox="0 0 68.262 44.495">
  <defs>
    <style>
      .cls-1, .cls-2 {
        fill: none;
        stroke: #000;
        stroke-linecap: round;
      }

      .cls-1 {
        stroke-linejoin: round;
        stroke-width: 3px;
      }

      .cls-2 {
        stroke-width: 2px;
      }
    </style>
  </defs>
  <g id="Componente_83_1" data-name="Componente 83 – 1" transform="translate(1.5 1.5)">
    <path id="Trazado_99" data-name="Trazado 99" class="cls-1" d="M70.138,48.255h0V26.549L50.089,22.407h-.895l-44.318,8,23.059,6.314,42.2-10.171-42.2,10.171L4.877,30.407h0V51.321c0,2.148,1.138,3.019,2.744,4.093l17.67,7.594a4.591,4.591,0,0,0,5.2,0Z" transform="translate(-4.877 -22.407)"/>
    <path id="Trazado_100" data-name="Trazado 100" class="cls-1" d="M18,44.2V18" transform="translate(5.012 -3.421)"/>
    <line id="Línea_70" data-name="Línea 70" class="cls-2" y2="15.918" transform="translate(4.456 13.148)"/>
    <line id="Línea_71" data-name="Línea 71" class="cls-2" y2="15.918" transform="translate(7.456 14.373)"/>
    <line id="Línea_72" data-name="Línea 72" class="cls-2" y2="15.918" transform="translate(10.456 15.597)"/>
    <line id="Línea_73" data-name="Línea 73" class="cls-2" y2="15.918" transform="translate(13.456 16.822)"/>
    <line id="Línea_74" data-name="Línea 74" class="cls-2" y2="15.918" transform="translate(16.456 18.046)"/>
    <line id="Línea_75" data-name="Línea 75" class="cls-2" y2="15" transform="translate(57.916 9.5)"/>
    <line id="Línea_76" data-name="Línea 76" class="cls-2" y2="15" transform="translate(54.916 10.5)"/>
    <line id="Línea_77" data-name="Línea 77" class="cls-2" y2="15" transform="translate(51.916 11.5)"/>
    <line id="Línea_78" data-name="Línea 78" class="cls-2" y2="15" transform="translate(48.916 12.5)"/>
    <line id="Línea_79" data-name="Línea 79" class="cls-2" y2="15" transform="translate(45.916 13.5)"/>
    <line id="Línea_80" data-name="Línea 80" class="cls-2" y2="16" transform="translate(42.916 13.5)"/>
    <line id="Línea_81" data-name="Línea 81" class="cls-2" y2="17" transform="translate(39.916 14.5)"/>
    <line id="Línea_82" data-name="Línea 82" class="cls-2" y2="17" transform="translate(36.916 15.5)"/>
    <line id="Línea_83" data-name="Línea 83" class="cls-2" y2="18" transform="translate(33.916 15.5)"/>
    <line id="Línea_84" data-name="Línea 84" class="cls-2" y2="18" transform="translate(30.916 16.5)"/>
    <line id="Línea_85" data-name="Línea 85" class="cls-2" x2="11" y2="2.5" transform="translate(14.916 8)"/>
    <line id="Línea_86" data-name="Línea 86" class="cls-2" x2="11" y2="2.5" transform="translate(20.916 7)"/>
    <line id="Línea_87" data-name="Línea 87" class="cls-2" x2="9" y2="2.5" transform="translate(28.916 5.5)"/>
    <line id="Línea_88" data-name="Línea 88" class="cls-2" x2="9" y2="2.5" transform="translate(33.916 4.5)"/>
    <line id="Línea_89" data-name="Línea 89" class="cls-2" x2="8" y2="2" transform="translate(39.916 3.5)"/>
    <path id="Trazado_101" data-name="Trazado 101" class="cls-2" d="M0,0V18" transform="translate(27.916 17.5)"/>
    <line id="Línea_90" data-name="Línea 90" class="cls-2" y2="15" transform="translate(60.916 8)"/>
  </g>
</svg>
