<svg xmlns="http://www.w3.org/2000/svg" width="70.416" height="44.495" viewBox="0 0 70.416 44.495">
  <defs>
    <style>
      .cls-1, .cls-2, .cls-3 {
        fill: none;
        stroke: #000;
        stroke-linecap: round;
      }

      .cls-1 {
        stroke-linejoin: round;
        stroke-width: 3px;
      }

      .cls-2 {
        stroke-width: 2px;
      }

      .cls-3 {
        stroke-width: 1.5px;
      }
    </style>
  </defs>
  <g id="Componente_82_2" data-name="Componente 82 – 2" transform="translate(1.5 1.5)">
    <path id="Trazado_90" data-name="Trazado 90" class="cls-1" d="M70.138,48.255l-20.943-9,20.943,9,2.154-21.706-22.2-4.143-.895,16.851L28.084,45.074V36.458L4.877,30.407V51.321c0,2.148,1.138,3.019,2.744,4.093l17.67,7.594a4.591,4.591,0,0,0,5.2,0Z" transform="translate(-4.877 -22.407)"/>
    <path id="Trazado_92" data-name="Trazado 92" class="cls-1" d="M18,44.2V18" transform="translate(5.013 -3.422)"/>
    <line id="Línea_18" data-name="Línea 18" class="cls-2" y2="15.918" transform="translate(4.456 13.148)"/>
    <line id="Línea_19" data-name="Línea 19" class="cls-2" y2="15.918" transform="translate(7.456 14.372)"/>
    <line id="Línea_20" data-name="Línea 20" class="cls-2" y2="15.918" transform="translate(10.456 15.597)"/>
    <line id="Línea_21" data-name="Línea 21" class="cls-2" y2="15.918" transform="translate(13.456 16.822)"/>
    <line id="Línea_22" data-name="Línea 22" class="cls-2" y2="15.918" transform="translate(16.456 18.046)"/>
    <line id="Línea_23" data-name="Línea 23" class="cls-2" y1="7.104" x2="22" transform="translate(23.456 20.942)"/>
    <line id="Línea_26" data-name="Línea 26" class="cls-3" y1="10" transform="translate(49.456 4.942)"/>
    <line id="Línea_27" data-name="Línea 27" class="cls-3" y1="10" transform="translate(52.456 5.942)"/>
    <line id="Línea_28" data-name="Línea 28" class="cls-3" y1="10" transform="translate(55.456 6.942)"/>
    <line id="Línea_29" data-name="Línea 29" class="cls-3" y1="10" transform="translate(58.456 7.942)"/>
    <line id="Línea_30" data-name="Línea 30" class="cls-3" y1="10" transform="translate(61.456 8.942)"/>
    <line id="Línea_24" data-name="Línea 24" class="cls-2" y1="8.104" x2="24" transform="translate(25.456 22.942)"/>
    <line id="Línea_25" data-name="Línea 25" class="cls-2" y1="10.104" x2="28" transform="translate(26.456 24.942)"/>
  </g>
</svg>
