<svg xmlns="http://www.w3.org/2000/svg" width="68.368" height="45.813" viewBox="0 0 68.368 45.813">
  <defs>
    <style>
      .cls-1, .cls-2 {
        fill: none;
        stroke: #000;
      }

      .cls-1 {
        stroke-linecap: round;
        stroke-linejoin: round;
        stroke-width: 3px;
      }

      .cls-2 {
        stroke-width: 2px;
      }

      .cls-3 {
        stroke: #b4b4b4;
      }
    </style>
  </defs>
  <g id="Icon_Reefer" data-name="Icon Reefer" transform="translate(1.5 1.5)">
    <g id="Icon_feather-truck" data-name="Icon feather-truck" transform="translate(7.877)">
      <path id="Trazado_26" data-name="Trazado 26" class="cls-1" d="M17.566,32.4A6.533,6.533,0,1,1,4.5,32.4c0-1.05,0-2.093,0-2.093H17.566s0,.921,0,2.093Z" transform="translate(0.726 3.882)"/>
      <path id="Trazado_39" data-name="Trazado 39" class="cls-1" d="M17.566,32.4A6.533,6.533,0,1,1,4.5,32.4c0-1.05,0-2.093,0-2.093H17.566s0,.921,0,2.093Z" transform="translate(31.714 3.882)"/>
      <path id="Trazado_24" data-name="Trazado 24" class="cls-1" d="M1.5,4.5H48.576V38.472H1.5Z" transform="translate(-9.377 -4.5)"/>
      <path id="Trazado_25" data-name="Trazado 25" class="cls-1" d="M24,12H34.453l7.84,7.84V32.906H24Z" transform="translate(15.199 1.066)"/>
      <path id="Icon_metro-truck2" data-name="Icon metro-truck2" class="cls-2" d="M78.873,38.112V33.53H85.04L89.5,38.112Z" transform="translate(-36.669 -17.635)"/>
      <path id="Icon_metro-air" data-name="Icon metro-air" d="M6.282,10.513c2.307-1.98,4.129-3.546,9.073-.753a12.06,12.06,0,0,0,5.884,1.846c2.792,0,4.6-1.553,6.167-2.9a1.369,1.369,0,0,0,.161-1.9,1.3,1.3,0,0,0-1.862-.165c-2.305,1.983-4.129,3.549-9.073.753C10.1,3.711,7.04,6.338,4.582,8.451a1.37,1.37,0,0,0-.16,1.9,1.3,1.3,0,0,0,1.86.162Zm19.424,2.876c-2.305,1.98-4.129,3.549-9.073.753C10.1,10.451,7.04,13.08,4.582,15.191a1.369,1.369,0,0,0-.16,1.9,1.3,1.3,0,0,0,1.86.165c2.307-1.982,4.129-3.548,9.073-.755a12.068,12.068,0,0,0,5.884,1.848c2.792,0,4.6-1.553,6.167-2.9a1.367,1.367,0,0,0,.161-1.9,1.3,1.3,0,0,0-1.862-.164Zm0,6.741c-2.305,1.983-4.129,3.549-9.073.755-6.533-3.69-9.593-1.063-12.052,1.05a1.369,1.369,0,0,0-.16,1.9A1.3,1.3,0,0,0,6.282,24c2.307-1.98,4.129-3.545,9.073-.753a12.1,12.1,0,0,0,5.884,1.848c2.792,0,4.6-1.555,6.167-2.9a1.369,1.369,0,0,0,.161-1.9,1.3,1.3,0,0,0-1.862-.165Z" transform="translate(4.371 5.26)"/>
      <path id="Icon_ionic-ios-snow" data-name="Icon ionic-ios-snow" class="cls-3" d="M20.527,16.054l-1.379-.8a3.7,3.7,0,0,1,1.115-.779.659.659,0,0,0,.379-.813.6.6,0,0,0-.575-.417.638.638,0,0,0-.234.047,4.974,4.974,0,0,0-1.784,1.328l-4.1-2.384,4.1-2.384a4.937,4.937,0,0,0,1.784,1.328.638.638,0,0,0,.234.047.609.609,0,0,0,.575-.417A.659.659,0,0,0,20.263,10a3.819,3.819,0,0,1-1.115-.779l1.379-.8a.644.644,0,0,0-.324-1.2.668.668,0,0,0-.324.085l-1.371.8A3.83,3.83,0,0,1,18.4,6.739.658.658,0,0,0,17.888,6a.65.65,0,0,0-.128-.013.609.609,0,0,0-.6.528,4.953,4.953,0,0,0,.26,2.222l-4.087,2.384V6.9a4.994,4.994,0,0,0,2.031-.89.61.61,0,0,0,.077-.886.655.655,0,0,0-.485-.217.666.666,0,0,0-.4.141,3.7,3.7,0,0,1-1.218.579V4.018a.66.66,0,0,0-1.32,0v1.6a3.806,3.806,0,0,1-1.218-.579.652.652,0,0,0-.89.077A.609.609,0,0,0,9.981,6a4.994,4.994,0,0,0,2.031.89v4.224L7.925,8.727A4.983,4.983,0,0,0,8.18,6.5a.6.6,0,0,0-.6-.528.647.647,0,0,0-.639.749,3.816,3.816,0,0,1-.111,1.358L5.46,7.292a.656.656,0,0,0-.324-.085.644.644,0,0,0-.324,1.2l1.379.8a3.761,3.761,0,0,1-1.115.779A.659.659,0,0,0,4.7,10.8a.6.6,0,0,0,.575.417.638.638,0,0,0,.234-.047A4.974,4.974,0,0,0,7.29,9.842l4.1,2.384-4.1,2.384a4.937,4.937,0,0,0-1.784-1.328.638.638,0,0,0-.234-.047.609.609,0,0,0-.575.417.66.66,0,0,0,.379.813,3.761,3.761,0,0,1,1.115.779l-1.379.8a.644.644,0,0,0,.324,1.2.668.668,0,0,0,.324-.085l1.375-.8a3.841,3.841,0,0,1,.111,1.362.647.647,0,0,0,.639.749.609.609,0,0,0,.6-.528,4.953,4.953,0,0,0-.26-2.222l4.087-2.384v4.224a4.994,4.994,0,0,0-2.031.89.61.61,0,0,0-.077.886.655.655,0,0,0,.485.217.666.666,0,0,0,.4-.141,3.75,3.75,0,0,1,1.218-.579v1.6a.66.66,0,0,0,1.32,0v-1.6a3.806,3.806,0,0,1,1.218.579.666.666,0,0,0,.4.141.655.655,0,0,0,.485-.217.609.609,0,0,0-.077-.886,4.994,4.994,0,0,0-2.031-.89V13.338l4.087,2.384a4.983,4.983,0,0,0-.255,2.222.6.6,0,0,0,.6.528.647.647,0,0,0,.639-.749,3.833,3.833,0,0,1,.111-1.362l1.371.8a.656.656,0,0,0,.324.085.64.64,0,0,0,.324-1.192Z" transform="translate(-8.242 0.516)"/>
    </g>
  </g>
</svg>
