<svg xmlns="http://www.w3.org/2000/svg" width="59.147" height="49.742" viewBox="0 0 59.147 49.742">
  <defs>
    <style>
      .cls-1 {
        fill: none;
        stroke: #000;
        stroke-width: 3px;
      }
    </style>
  </defs>
  <g id="Icon_ionic-ios-airplane" data-name="Icon ionic-ios-airplane" transform="translate(1.511 1.5)">
    <path id="Icon_ionic-ios-airplane-2" data-name="Icon ionic-ios-airplane" class="cls-1" d="M49.326,24.369c-.426,0-1.854.013-2.255.038l-8.132.216a.231.231,0,0,1-.213-.114L26.534,6a2.007,2.007,0,0,0-1.692-.94h-2.97c-.7,0-.94.711-.689,1.372l6.277,18.138a.248.248,0,0,1-.226.343L11.9,25.144a1,1,0,0,1-.827-.394L6.436,19.034a1.979,1.979,0,0,0-1.579-.775h-2.1a.5.5,0,0,0-.476.673L4.77,27.659a2.1,2.1,0,0,1,0,1.511L2.276,37.9a.5.5,0,0,0,.476.673H4.845a2.016,2.016,0,0,0,1.579-.775l4.724-5.8a1.021,1.021,0,0,1,.827-.394l15.249.343a.252.252,0,0,1,.226.343L21.171,50.433c-.251.66-.013,1.372.689,1.372h2.97a1.991,1.991,0,0,0,1.692-.94l12.2-18.494a.245.245,0,0,1,.213-.114l8.132.216c.413.025,1.829.038,2.255.038,5.551,0,9.059-1.816,9.059-4.065S54.889,24.369,49.326,24.369Z" transform="translate(-2.248 -5.063)"/>
  </g>
</svg>
