<svg xmlns="http://www.w3.org/2000/svg" width="61.146" height="43.545" viewBox="0 0 61.146 43.545">
  <defs>
    <style>
      .cls-1 {
        fill: none;
        stroke: #000;
        stroke-width: 2.5px;
      }
    </style>
  </defs>
  <path id="Icon_awesome-box-open" data-name="Icon awesome-box-open" class="cls-1" d="M5.863,19.012v16.3a2.921,2.921,0,0,0,2.216,2.839l19.8,4.955a5.954,5.954,0,0,0,2.839,0l19.82-4.955a2.937,2.937,0,0,0,2.216-2.839V16.367L38.938,19.8l-2.229-2.709-7.4-11.905H27.534L19.451,19.446,5.863,16.367Zm52.6-6.521L53.745,3.075a1.5,1.5,0,0,0-1.53-.815L30.068,3.63l-.35,1.136c.348.577,8.287,15.738,8.938,15.555l18.872-5.714A1.508,1.508,0,0,0,58.462,12.49ZM4.873,3.075.157,12.49A1.493,1.493,0,0,0,1.082,14.6L19.207,20.32c.65.183,1.346-.64,1.694-1.217L28.233,3.63,6.394,2.26A1.5,1.5,0,0,0,4.873,3.075Z" transform="translate(1.266 -0.989)"/>
</svg>
