<svg xmlns="http://www.w3.org/2000/svg" width="33.036" height="42.085" viewBox="0 0 33.036 42.085">
  <defs>
    <style>
      .cls-1 {
        fill: none;
        stroke: #000;
        stroke-width: 3px;
      }
    </style>
  </defs>
  <path id="Icon_awesome-map-marker-alt" data-name="Icon awesome-map-marker-alt" class="cls-1" d="M13.475,38.3C2.11,22.217,0,20.566,0,14.657A14.841,14.841,0,0,1,15.018,0,14.841,14.841,0,0,1,30.036,14.657c0,5.91-2.11,7.56-13.475,23.64a1.9,1.9,0,0,1-3.087,0Zm1.543-17.533a6.184,6.184,0,0,0,6.258-6.107,6.259,6.259,0,0,0-12.515,0A6.184,6.184,0,0,0,15.018,20.764Z" transform="translate(1.5 1.5)"/>
</svg>
