<svg xmlns="http://www.w3.org/2000/svg" width="56.186" height="50.642" viewBox="0 0 56.186 50.642">
  <defs>
    <style>
      .cls-1 {
        fill: none;
        stroke: #000;
        stroke-linecap: round;
        stroke-linejoin: round;
        stroke-width: 2px;
      }
    </style>
  </defs>
  <path id="Icon_awesome-map-marked-alt" data-name="Icon awesome-map-marked-alt" class="cls-1" d="M27.093,0A11.853,11.853,0,0,0,15.24,11.853c0,5.292,7.747,14.939,10.715,18.44a1.484,1.484,0,0,0,2.277,0c2.968-3.5,10.715-13.148,10.715-18.44A11.853,11.853,0,0,0,27.093,0Zm0,15.8a3.951,3.951,0,1,1,3.951-3.951A3.951,3.951,0,0,1,27.093,15.8Zm-25.2,4.511A3.011,3.011,0,0,0,0,23.11V46.658a1.505,1.505,0,0,0,2.064,1.4l12.988-5.911V20.218a28.488,28.488,0,0,1-2-4.367Zm25.2,13.52a4.5,4.5,0,0,1-3.435-1.6c-1.849-2.182-3.817-4.668-5.6-7.217V42.143l18.062,6.021V25.023c-1.78,2.548-3.746,5.035-5.6,7.217A4.5,4.5,0,0,1,27.093,33.835ZM52.122,15.161,39.134,21.072V48.165L52.293,42.9a3.01,3.01,0,0,0,1.893-2.795V16.559A1.505,1.505,0,0,0,52.122,15.161Z" transform="translate(1 1)"/>
</svg>
